<svg xmlns="http://www.w3.org/2000/svg" xmlns:xlink="http://www.w3.org/1999/xlink" width="1920" zoomAndPan="magnify" viewBox="0 0 1440 314.999992" height="420" preserveAspectRatio="xMidYMid meet" version="1.0"><defs><g/><clipPath id="d4a07fa466"><path d="M 31.5 86 L 189 86 L 189 275 L 31.5 275 Z M 31.5 86 " clip-rule="nonzero"/></clipPath><clipPath id="d11dcf4e64"><path d="M 106 31.5 L 261 31.5 L 261 276 L 106 276 Z M 106 31.5 " clip-rule="nonzero"/></clipPath><clipPath id="b1459263dc"><path d="M 759.847656 161.25 L 837.847656 161.25 L 837.847656 239.25 L 759.847656 239.25 Z M 759.847656 161.25 " clip-rule="nonzero"/></clipPath></defs><g fill="#010101" fill-opacity="1"><g transform="translate(263.919404, 265.693931)"><g><path d="M 17.6875 -182.203125 L 55.984375 -182.203125 L 55.984375 0 L 17.6875 0 Z M 17.6875 -182.203125 "/></g></g></g><g fill="#010101" fill-opacity="1"><g transform="translate(337.832062, 265.693931)"><g><path d="M 17.6875 -132.109375 L 55.984375 -132.109375 L 55.984375 0 L 17.6875 0 Z M 36.828125 -150.53125 C 29.785156 -150.53125 24.054688 -152.578125 19.640625 -156.671875 C 15.222656 -160.765625 13.015625 -165.835938 13.015625 -171.890625 C 13.015625 -177.953125 15.222656 -183.023438 19.640625 -187.109375 C 24.054688 -191.203125 29.785156 -193.25 36.828125 -193.25 C 43.867188 -193.25 49.597656 -191.285156 54.015625 -187.359375 C 58.441406 -183.429688 60.65625 -178.519531 60.65625 -172.625 C 60.65625 -166.238281 58.441406 -160.957031 54.015625 -156.78125 C 49.597656 -152.613281 43.867188 -150.53125 36.828125 -150.53125 Z M 36.828125 -150.53125 "/></g></g></g><g fill="#010101" fill-opacity="1"><g transform="translate(411.744719, 265.693931)"><g><path d="M 70.96875 -134.078125 C 91.425781 -134.078125 107.140625 -129.207031 118.109375 -119.46875 C 129.078125 -109.726562 134.5625 -95.035156 134.5625 -75.390625 L 134.5625 0 L 98.71875 0 L 98.71875 -16.453125 C 91.507812 -4.171875 78.082031 1.96875 58.4375 1.96875 C 48.289062 1.96875 39.492188 0.25 32.046875 -3.1875 C 24.597656 -6.625 18.90625 -11.367188 14.96875 -17.421875 C 11.039062 -23.484375 9.078125 -30.363281 9.078125 -38.0625 C 9.078125 -50.34375 13.703125 -60 22.953125 -67.03125 C 32.203125 -74.070312 46.488281 -77.59375 65.8125 -77.59375 L 96.265625 -77.59375 C 96.265625 -85.945312 93.722656 -92.375 88.640625 -96.875 C 83.566406 -101.375 75.957031 -103.625 65.8125 -103.625 C 58.769531 -103.625 51.851562 -102.519531 45.0625 -100.3125 C 38.269531 -98.101562 32.5 -95.113281 27.75 -91.34375 L 14 -118.109375 C 21.195312 -123.191406 29.828125 -127.125 39.890625 -129.90625 C 49.960938 -132.6875 60.320312 -134.078125 70.96875 -134.078125 Z M 68.015625 -23.8125 C 74.566406 -23.8125 80.378906 -25.328125 85.453125 -28.359375 C 90.523438 -31.390625 94.128906 -35.851562 96.265625 -41.75 L 96.265625 -55.25 L 69.984375 -55.25 C 54.265625 -55.25 46.40625 -50.09375 46.40625 -39.78125 C 46.40625 -34.875 48.328125 -30.984375 52.171875 -28.109375 C 56.023438 -25.242188 61.304688 -23.8125 68.015625 -23.8125 Z M 68.015625 -23.8125 "/></g></g></g><g fill="#010101" fill-opacity="1"><g transform="translate(563.253432, 265.693931)"><g><path d="M 101.65625 0 L 72.6875 -40.515625 L 42.734375 0 L 0.984375 0 L 51.8125 -66.546875 L 2.703125 -132.109375 L 45.671875 -132.109375 L 73.671875 -93.5625 L 102.40625 -132.109375 L 143.15625 -132.109375 L 94.046875 -67.53125 L 145.125 0 Z M 101.65625 0 "/></g></g></g><g fill="#ff981f" fill-opacity="1"><g transform="translate(709.360784, 265.693931)"><g><path d="M 95.765625 -134.078125 C 108.046875 -134.078125 119.21875 -131.253906 129.28125 -125.609375 C 139.351562 -119.960938 147.253906 -112.019531 152.984375 -101.78125 C 158.710938 -91.550781 161.578125 -79.644531 161.578125 -66.0625 C 161.578125 -52.46875 158.710938 -40.554688 152.984375 -30.328125 C 147.253906 -20.097656 139.351562 -12.15625 129.28125 -6.5 C 119.21875 -0.851562 108.046875 1.96875 95.765625 1.96875 C 78.898438 1.96875 65.640625 -3.351562 55.984375 -14 L 55.984375 47.640625 L 17.6875 47.640625 L 17.6875 -132.109375 L 54.265625 -132.109375 L 54.265625 -116.890625 C 63.765625 -128.347656 77.597656 -134.078125 95.765625 -134.078125 Z M 89.140625 -29.46875 C 98.960938 -29.46875 107.023438 -32.78125 113.328125 -39.40625 C 119.628906 -46.039062 122.78125 -54.925781 122.78125 -66.0625 C 122.78125 -77.1875 119.628906 -86.0625 113.328125 -92.6875 C 107.023438 -99.320312 98.960938 -102.640625 89.140625 -102.640625 C 79.316406 -102.640625 71.253906 -99.320312 64.953125 -92.6875 C 58.648438 -86.0625 55.5 -77.1875 55.5 -66.0625 C 55.5 -54.925781 58.648438 -46.039062 64.953125 -39.40625 C 71.253906 -32.78125 79.316406 -29.46875 89.140625 -29.46875 Z M 89.140625 -29.46875 "/></g></g></g><g fill="#010101" fill-opacity="1"><g transform="translate(878.802175, 265.693931)"><g><path d="M 54.265625 -114.671875 C 58.847656 -121.054688 65.023438 -125.882812 72.796875 -129.15625 C 80.578125 -132.4375 89.546875 -134.078125 99.703125 -134.078125 L 99.703125 -98.71875 C 95.441406 -99.039062 92.578125 -99.203125 91.109375 -99.203125 C 80.140625 -99.203125 71.539062 -96.132812 65.3125 -90 C 59.09375 -83.863281 55.984375 -74.65625 55.984375 -62.375 L 55.984375 0 L 17.6875 0 L 17.6875 -132.109375 L 54.265625 -132.109375 Z M 54.265625 -114.671875 "/></g></g></g><g fill="#010101" fill-opacity="1"><g transform="translate(982.427264, 265.693931)"><g><path d="M 147.09375 -65.5625 C 147.09375 -65.070312 146.847656 -61.632812 146.359375 -55.25 L 46.40625 -55.25 C 48.207031 -47.0625 52.460938 -40.59375 59.171875 -35.84375 C 65.890625 -31.101562 74.242188 -28.734375 84.234375 -28.734375 C 91.109375 -28.734375 97.203125 -29.753906 102.515625 -31.796875 C 107.835938 -33.847656 112.789062 -37.082031 117.375 -41.5 L 137.765625 -19.40625 C 125.316406 -5.15625 107.144531 1.96875 83.25 1.96875 C 68.351562 1.96875 55.171875 -0.9375 43.703125 -6.75 C 32.242188 -12.5625 23.40625 -20.625 17.1875 -30.9375 C 10.96875 -41.25 7.859375 -52.957031 7.859375 -66.0625 C 7.859375 -78.988281 10.925781 -90.648438 17.0625 -101.046875 C 23.207031 -111.441406 31.640625 -119.546875 42.359375 -125.359375 C 53.078125 -131.171875 65.066406 -134.078125 78.328125 -134.078125 C 91.265625 -134.078125 102.972656 -131.289062 113.453125 -125.71875 C 123.929688 -120.15625 132.15625 -112.175781 138.125 -101.78125 C 144.101562 -91.382812 147.09375 -79.3125 147.09375 -65.5625 Z M 78.578125 -105.09375 C 69.898438 -105.09375 62.613281 -102.632812 56.71875 -97.71875 C 50.832031 -92.8125 47.234375 -86.101562 45.921875 -77.59375 L 111 -77.59375 C 109.6875 -85.945312 106.082031 -92.617188 100.1875 -97.609375 C 94.289062 -102.597656 87.085938 -105.09375 78.578125 -105.09375 Z M 78.578125 -105.09375 "/></g></g></g><g fill="#010101" fill-opacity="1"><g transform="translate(1137.373766, 265.693931)"><g><path d="M 62.125 1.96875 C 51.15625 1.96875 40.429688 0.617188 29.953125 -2.078125 C 19.484375 -4.785156 11.132812 -8.1875 4.90625 -12.28125 L 17.6875 -39.78125 C 23.570312 -36.019531 30.6875 -32.953125 39.03125 -30.578125 C 47.382812 -28.203125 55.570312 -27.015625 63.59375 -27.015625 C 79.800781 -27.015625 87.90625 -31.023438 87.90625 -39.046875 C 87.90625 -42.804688 85.695312 -45.503906 81.28125 -47.140625 C 76.863281 -48.785156 70.070312 -50.179688 60.90625 -51.328125 C 50.09375 -52.960938 41.164062 -54.84375 34.125 -56.96875 C 27.09375 -59.09375 21 -62.859375 15.84375 -68.265625 C 10.6875 -73.671875 8.109375 -81.363281 8.109375 -91.34375 C 8.109375 -99.695312 10.519531 -107.101562 15.34375 -113.5625 C 20.175781 -120.03125 27.21875 -125.066406 36.46875 -128.671875 C 45.71875 -132.273438 56.644531 -134.078125 69.25 -134.078125 C 78.582031 -134.078125 87.875 -133.050781 97.125 -131 C 106.375 -128.957031 114.023438 -126.132812 120.078125 -122.53125 L 107.3125 -95.28125 C 95.6875 -101.820312 83 -105.09375 69.25 -105.09375 C 61.0625 -105.09375 54.921875 -103.945312 50.828125 -101.65625 C 46.734375 -99.363281 44.6875 -96.421875 44.6875 -92.828125 C 44.6875 -88.734375 46.894531 -85.863281 51.3125 -84.21875 C 55.738281 -82.582031 62.78125 -81.03125 72.4375 -79.5625 C 83.238281 -77.757812 92.078125 -75.832031 98.953125 -73.78125 C 105.835938 -71.738281 111.816406 -68.015625 116.890625 -62.609375 C 121.960938 -57.210938 124.5 -49.6875 124.5 -40.03125 C 124.5 -31.84375 122.039062 -24.554688 117.125 -18.171875 C 112.21875 -11.785156 105.054688 -6.832031 95.640625 -3.3125 C 86.234375 0.207031 75.0625 1.96875 62.125 1.96875 Z M 62.125 1.96875 "/></g></g></g><g fill="#010101" fill-opacity="1"><g transform="translate(1267.764579, 265.693931)"><g><path d="M 62.125 1.96875 C 51.15625 1.96875 40.429688 0.617188 29.953125 -2.078125 C 19.484375 -4.785156 11.132812 -8.1875 4.90625 -12.28125 L 17.6875 -39.78125 C 23.570312 -36.019531 30.6875 -32.953125 39.03125 -30.578125 C 47.382812 -28.203125 55.570312 -27.015625 63.59375 -27.015625 C 79.800781 -27.015625 87.90625 -31.023438 87.90625 -39.046875 C 87.90625 -42.804688 85.695312 -45.503906 81.28125 -47.140625 C 76.863281 -48.785156 70.070312 -50.179688 60.90625 -51.328125 C 50.09375 -52.960938 41.164062 -54.84375 34.125 -56.96875 C 27.09375 -59.09375 21 -62.859375 15.84375 -68.265625 C 10.6875 -73.671875 8.109375 -81.363281 8.109375 -91.34375 C 8.109375 -99.695312 10.519531 -107.101562 15.34375 -113.5625 C 20.175781 -120.03125 27.21875 -125.066406 36.46875 -128.671875 C 45.71875 -132.273438 56.644531 -134.078125 69.25 -134.078125 C 78.582031 -134.078125 87.875 -133.050781 97.125 -131 C 106.375 -128.957031 114.023438 -126.132812 120.078125 -122.53125 L 107.3125 -95.28125 C 95.6875 -101.820312 83 -105.09375 69.25 -105.09375 C 61.0625 -105.09375 54.921875 -103.945312 50.828125 -101.65625 C 46.734375 -99.363281 44.6875 -96.421875 44.6875 -92.828125 C 44.6875 -88.734375 46.894531 -85.863281 51.3125 -84.21875 C 55.738281 -82.582031 62.78125 -81.03125 72.4375 -79.5625 C 83.238281 -77.757812 92.078125 -75.832031 98.953125 -73.78125 C 105.835938 -71.738281 111.816406 -68.015625 116.890625 -62.609375 C 121.960938 -57.210938 124.5 -49.6875 124.5 -40.03125 C 124.5 -31.84375 122.039062 -24.554688 117.125 -18.171875 C 112.21875 -11.785156 105.054688 -6.832031 95.640625 -3.3125 C 86.234375 0.207031 75.0625 1.96875 62.125 1.96875 Z M 62.125 1.96875 "/></g></g></g><g clip-path="url(#d4a07fa466)"><path fill="#af0a0a" d="M 152.964844 86.75 L 31.480469 274.5625 L 80.671875 274.5625 L 110.480469 220.902344 L 162.652344 220.15625 L 188.738281 200.03125 L 122.40625 200.777344 L 167.871094 121.03125 Z M 152.964844 86.75 " fill-opacity="1" fill-rule="nonzero"/></g><g clip-path="url(#d11dcf4e64)"><path fill="#ff981f" d="M 158.179688 31.597656 L 243.890625 174.691406 C 260.738281 202.183594 263.375 225.289062 256.804688 242.464844 C 251.417969 256.53125 239.855469 266.617188 224.855469 271.871094 C 216.441406 274.8125 208.660156 274.839844 200.679688 275.019531 C 165.765625 275.8125 137.089844 273.925781 106.011719 273.070312 L 165.632812 240.277344 C 184.027344 227.054688 205 204.699219 196.9375 162.769531 Z M 158.179688 31.597656 " fill-opacity="1" fill-rule="nonzero"/></g><path fill="#af0a0a" d="M 253.578125 193.390625 C 258.285156 232.1875 243.863281 261.207031 199.898438 275.175781 C 250.796875 277.46875 274.128906 233.691406 253.578125 193.390625 Z M 253.578125 193.390625 " fill-opacity="1" fill-rule="nonzero"/><path fill="#ff981f" d="M 786.714844 220.867188 C 786.714844 221.089844 786.675781 221.300781 786.589844 221.503906 C 786.503906 221.710938 786.386719 221.890625 786.230469 222.046875 C 786.074219 222.199219 785.894531 222.320312 785.691406 222.40625 C 785.484375 222.488281 785.273438 222.53125 785.054688 222.53125 C 784.832031 222.53125 784.621094 222.488281 784.417969 222.40625 C 784.210938 222.320312 784.03125 222.199219 783.875 222.046875 C 783.71875 221.890625 783.601562 221.710938 783.515625 221.503906 C 783.429688 221.300781 783.390625 221.089844 783.390625 220.867188 C 783.390625 220.648438 783.429688 220.4375 783.515625 220.230469 C 783.601562 220.027344 783.71875 219.847656 783.875 219.691406 C 784.03125 219.535156 784.210938 219.414062 784.417969 219.332031 C 784.621094 219.246094 784.832031 219.203125 785.054688 219.203125 C 785.273438 219.203125 785.484375 219.246094 785.691406 219.332031 C 785.894531 219.414062 786.074219 219.535156 786.230469 219.691406 C 786.386719 219.847656 786.503906 220.027344 786.589844 220.230469 C 786.675781 220.4375 786.714844 220.648438 786.714844 220.867188 Z M 786.714844 220.867188 " fill-opacity="1" fill-rule="nonzero"/><path fill="#ff981f" d="M 814.023438 220.867188 C 814.023438 221.089844 813.980469 221.300781 813.894531 221.503906 C 813.8125 221.710938 813.691406 221.890625 813.535156 222.046875 C 813.378906 222.199219 813.199219 222.320312 812.996094 222.40625 C 812.792969 222.488281 812.578125 222.53125 812.359375 222.53125 C 812.136719 222.53125 811.925781 222.488281 811.722656 222.40625 C 811.519531 222.320312 811.339844 222.199219 811.183594 222.046875 C 811.027344 221.890625 810.90625 221.710938 810.820312 221.503906 C 810.738281 221.300781 810.695312 221.089844 810.695312 220.867188 C 810.695312 220.648438 810.738281 220.4375 810.820312 220.230469 C 810.90625 220.027344 811.027344 219.847656 811.183594 219.691406 C 811.339844 219.535156 811.519531 219.414062 811.722656 219.332031 C 811.925781 219.246094 812.136719 219.203125 812.359375 219.203125 C 812.578125 219.203125 812.792969 219.246094 812.996094 219.332031 C 813.199219 219.414062 813.378906 219.535156 813.535156 219.691406 C 813.691406 219.847656 813.8125 220.027344 813.894531 220.230469 C 813.980469 220.4375 814.023438 220.648438 814.023438 220.867188 Z M 814.023438 220.867188 " fill-opacity="1" fill-rule="nonzero"/><g clip-path="url(#b1459263dc)"><path fill="#ff981f" d="M 798.808594 161.226562 C 777.292969 161.226562 759.855469 178.667969 759.855469 200.179688 C 759.855469 221.691406 777.292969 239.136719 798.808594 239.136719 C 820.320312 239.136719 837.761719 221.695312 837.761719 200.179688 C 837.761719 178.667969 820.320312 161.226562 798.808594 161.226562 Z M 788.160156 215.164062 L 812.359375 215.164062 C 815.503906 215.164062 818.0625 217.722656 818.0625 220.867188 C 818.0625 224.015625 815.503906 226.574219 812.359375 226.574219 C 809.210938 226.574219 806.652344 224.015625 806.652344 220.867188 C 806.652344 220.289062 806.742188 219.730469 806.902344 219.203125 L 790.507812 219.203125 C 790.667969 219.730469 790.757812 220.289062 790.757812 220.867188 C 790.757812 224.015625 788.199219 226.574219 785.054688 226.574219 C 781.90625 226.574219 779.347656 224.015625 779.347656 220.867188 C 779.347656 218.058594 781.390625 215.722656 784.070312 215.253906 L 783.066406 209.730469 L 783.058594 209.679688 L 777.738281 183.351562 L 772.851562 183.386719 L 772.824219 179.34375 L 781.039062 179.289062 L 783.027344 189.128906 L 819.863281 193.542969 L 815.183594 211.375 L 787.472656 211.375 Z M 788.160156 215.164062 " fill-opacity="1" fill-rule="nonzero"/></g></svg>