<svg xmlns="http://www.w3.org/2000/svg" xmlns:xlink="http://www.w3.org/1999/xlink" width="1080" zoomAndPan="magnify" viewBox="0 0 810 809.999993" height="1080" preserveAspectRatio="xMidYMid meet" version="1.0"><defs><clipPath id="0a6ea0eda7"><path d="M 36.753906 182 L 515 182 L 515 753 L 36.753906 753 Z M 36.753906 182 " clip-rule="nonzero"/></clipPath></defs><g clip-path="url(#0a6ea0eda7)"><path fill="#af0a0a" d="M 405.457031 182.6875 L 36.699219 752.792969 L 186.011719 752.792969 L 276.503906 589.90625 L 434.867188 587.644531 L 514.050781 526.558594 L 312.703125 528.824219 L 450.707031 286.753906 Z M 405.457031 182.6875 " fill-opacity="1" fill-rule="nonzero"/></g><path fill="#ff981f" d="M 421.296875 15.273438 L 681.464844 449.640625 C 732.601562 533.089844 740.613281 603.230469 720.660156 655.363281 C 704.320312 698.0625 669.214844 728.679688 623.683594 744.625 C 598.140625 753.558594 574.523438 753.640625 550.304688 754.1875 C 444.3125 756.585938 357.269531 750.863281 262.933594 748.269531 L 443.917969 648.726562 C 499.75 608.585938 563.414062 540.730469 538.9375 413.441406 Z M 421.296875 15.273438 " fill-opacity="1" fill-rule="nonzero"/><path fill="#af0a0a" d="M 710.875 506.394531 C 725.15625 624.164062 681.386719 712.261719 547.929688 754.65625 C 702.433594 761.617188 773.257812 628.734375 710.875 506.394531 Z M 710.875 506.394531 " fill-opacity="1" fill-rule="nonzero"/></svg>